<svg width="20px" height="20px" viewBox="0 0 20 20" version="1.1" xmlns="http://www.w3.org/2000/svg" xmlns:xlink="http://www.w3.org/1999/xlink">
    <g id="Page-1" stroke="none" stroke-width="1" fill="none" fill-rule="evenodd">
        <g id="icon-search" fill="#2C1E8F" fill-rule="nonzero">
            <path d="M8.50160957,0 C3.81394888,0 0,3.81394888 0,8.50160957 C0,13.1895342 3.81394888,17.0032191 8.50160957,17.0032191 C13.1895342,17.0032191 17.0032191,13.1895342 17.0032191,8.50160957 C17.0032191,3.81394888 13.1895342,0 8.50160957,0 Z M8.50160957,15.4337277 C4.67929007,15.4337277 1.56952908,12.3239668 1.56952908,8.50164728 C1.56952908,4.67932778 4.67929007,1.56952908 8.50160957,1.56952908 C12.3239291,1.56952908 15.43369,4.67929007 15.43369,8.50160957 C15.43369,12.3239291 12.3239291,15.4337277 8.50160957,15.4337277 Z" id="Shape"></path>
            <path d="M19.0752871,17.9656143 L14.5759654,13.4662926 C14.269382,13.1597092 13.772876,13.1597092 13.4662926,13.4662926 C13.1597092,13.7726121 13.1597092,14.2696459 13.4662926,14.5759654 L17.9656143,19.0752871 C18.1188872,19.2285599 18.3195558,19.3052152 18.5204507,19.3052152 C18.7210817,19.3052152 18.9219766,19.2285599 19.0752871,19.0752871 C19.3818705,18.7689677 19.3818705,18.2719338 19.0752871,17.9656143 Z" id="Path"></path>
        </g>
    </g>
</svg>
