<svg width="12px" height="7px" viewBox="0 0 12 7" version="1.1" xmlns="http://www.w3.org/2000/svg" xmlns:xlink="http://www.w3.org/1999/xlink">
    <g id="Page-1" stroke="none" stroke-width="1" fill="none" fill-rule="evenodd">
        <g id="Media-Manager---Folder-Grid-View" transform="translate(-646.000000, -233.000000)">
            <rect id="Rectangle" fill="#FFFFFF" x="350" y="116" width="1089" height="968"></rect>
            <g id="Group-6" transform="translate(413.000000, 215.000000)">
                <g id="Group-5" stroke="#DEDEDE">
                    <rect id="Rectangle" x="0" y="0" width="257" height="42" rx="2"></rect>
                </g>
                <g id="icon-arrow-down" transform="translate(234.000000, 19.000000)" fill="#333330" fill-rule="nonzero" stroke="#333333" stroke-width="0.5">
                    <path d="M9.8858787,0.11470235 C9.73347637,-0.038012487 9.48617169,-0.038246862 9.33343732,0.114135944 L5.27621093,4.16294437 C5.12388671,4.31524905 4.87609376,4.31522952 4.72349611,4.1626514 L0.666562679,0.114135944 C0.513847842,-0.0382663932 0.266543165,-0.038012487 0.114121296,0.11470235 C-0.0382615104,0.267417188 -0.0380076041,0.514741396 0.114687702,0.667124203 L4.17134769,4.71536622 C4.39988284,4.94386231 4.69998048,5.05808105 5.00011719,5.05808105 C5.30007811,5.05808105 5.60009763,4.94390137 5.82833981,4.71563966 L9.8853123,0.667124203 C10.0380076,0.514741396 10.0382615,0.267417188 9.8858787,0.11470235 Z" id="Path"></path>
                </g>
            </g>
        </g>
    </g>
</svg>
