<svg width="302px" height="244px" viewBox="0 0 302 244" version="1.1" xmlns="http://www.w3.org/2000/svg" xmlns:xlink="http://www.w3.org/1999/xlink">
    <title>icon-upload</title>
    <defs>
        <filter x="-8.8%" y="-7.5%" width="117.7%" height="114.9%" filterUnits="objectBoundingBox" id="filter-1">
            <feOffset dx="0" dy="1" in="SourceAlpha" result="shadowOffsetOuter1"></feOffset>
            <feGaussianBlur stdDeviation="2" in="shadowOffsetOuter1" result="shadowBlurOuter1"></feGaussianBlur>
            <feColorMatrix values="0 0 0 0 0.732876543   0 0 0 0 0.732876543   0 0 0 0 0.732876543  0 0 0 0.5 0" type="matrix" in="shadowBlurOuter1" result="shadowMatrixOuter1"></feColorMatrix>
            <feMerge>
                <feMergeNode in="shadowMatrixOuter1"></feMergeNode>
                <feMergeNode in="SourceGraphic"></feMergeNode>
            </feMerge>
        </filter>
    </defs>
    <g id="Page-1" stroke="none" stroke-width="1" fill="none" fill-rule="evenodd">
        <g id="icon-upload" transform="translate(1.000000, 0.000000)">
            <g id="add-files">
                <path d="M217.686353,9.33718757 C184.307692,-13.6719682 140.320613,7.30686471 119.438618,56.1948322 L119.423123,56.230947 C118.440217,58.5332838 116.77081,60.3068916 114.568748,61.3610327 C103.924192,66.4568032 93.6353717,73.272418 84.1777429,81.7881054 C40.2952145,121.300111 30.9103897,182.416246 63.2153837,218.294576 C95.5203778,254.172907 157.282506,251.227661 201.165034,211.715655 C223.678976,191.444011 237.112486,165.485471 240.493965,140.166286 C240.62996,139.147537 240.877757,138.182137 241.239677,137.290159 C260.882256,88.8724266 250.559415,31.9976972 217.686353,9.33718757" id="Fill-3" fill-opacity="0.04" fill="#000000" fill-rule="nonzero"></path>
                <g id="Group-9" transform="translate(0.000000, 47.000000)">
                    <g id="image-file" transform="translate(236.943859, 86.154462) rotate(18.000000) translate(-236.943859, -86.154462) translate(189.943859, 30.654462)" fill-rule="nonzero" stroke="#000000" stroke-width="2">
                        <path d="M92.3990626,35.6535 L57.6947813,0.949218696 C57.0872813,0.341718696 56.2629374,0 55.404,0 L12.0242813,0 C5.454,0 0.108,5.346 0.108,11.9162813 L0.108,78.728625 C0.108,80.0389687 0.89775,81.2202187 2.1085313,81.72225 C2.50931261,81.8884687 2.9303437,81.9686691 3.3471563,81.9686691 C4.1909063,81.9686691 5.0194687,81.6395626 5.639625,81.02025 L24.1709063,62.488125 L39.2318437,77.5490626 C39.8393437,78.1565626 40.6636874,78.4982813 41.522625,78.4982813 C42.3824063,78.4982813 43.2059063,78.1574063 43.81425,77.5490626 L64.0802813,57.2821874 L87.8175,81.0194063 C88.7439374,81.9458437 90.1378126,82.2234374 91.3485937,81.72225 C92.559375,81.2202187 93.3482813,80.0389687 93.3482813,78.728625 L93.3482813,37.9442813 C93.3482813,37.0845 93.0065626,36.261 92.3990626,35.6535 L92.3990626,35.6535 Z" id="Path" fill="#FFFFFF"></path>
                        <path d="M92.3990626,35.6535 L57.6947813,0.949218696 C56.7683437,0.022781304 55.3744687,-0.254812608 54.1636874,0.247218696 C52.9529063,0.748406304 52.164,1.9296563 52.164,3.24 L52.164,29.268 C52.164,35.8382813 57.5091563,41.1842813 64.0802813,41.1842813 L90.1082813,41.1842813 C91.4177813,41.1842813 92.599875,40.3945313 93.1010626,39.18375 C93.6030937,37.9729687 93.3255,36.5799374 92.3990626,35.6535 L92.3990626,35.6535 Z" id="Path" fill="#EDECEC"></path>
                        <path d="M12.0242813,110.592 C5.4531563,110.592 0.108,105.246 0.108,98.6757187 L0.108,98.6757187 L0.108,78.728625 C0.108,77.8696874 0.449718696,77.0453437 1.0572187,76.4378437 L1.0572187,76.4378437 L21.880125,55.6149374 C22.487625,55.0074374 23.3119687,54.6657187 24.1709063,54.6657187 C25.0298437,54.6657187 25.8541874,55.0074374 26.4616874,55.6149374 L26.4616874,55.6149374 L41.522625,70.675875 L61.7895,50.4098437 C62.3961563,49.8023437 63.2213437,49.460625 64.0802813,49.460625 L64.0802813,49.460625 L64.2941895,49.4677002 C65.0751035,49.5194238 65.8141876,49.8529687 66.3710626,50.4098437 L66.3710626,50.4098437 L92.3990626,76.4378437 C93.0065626,77.0453437 93.3482813,77.8688437 93.3482813,78.728625 L93.3482813,78.728625 L93.3482813,98.6757187 C93.3482813,103.73043 90.1849677,108.059717 85.7344072,109.788663 L85.4658439,109.889172 C84.20548,110.343996 82.8471375,110.592 81.432,110.592 L81.432,110.592 Z" id="Combined-Shape" fill="#DADADA"></path>
                        <path d="M29.376,19.9470937 C22.8057187,19.9470937 17.4605626,25.29225 17.4605626,31.863375 C17.4605626,38.4336563 22.8057187,43.7788126 29.376,43.7788126 C35.9462813,43.7788126 41.2922813,38.4336563 41.2922813,31.863375 C41.2922813,25.29225 35.9462813,19.9470937 29.376,19.9470937 Z" id="Path" fill="#EDECEC"></path>
                    </g>
                    <g id="image-file" transform="translate(62.656141, 85.554462) scale(-1, 1) rotate(18.000000) translate(-62.656141, -85.554462) translate(15.656141, 30.054462)">
                        <path d="M93.3482813,98.6757187 C93.3482813,103.123865 90.8986112,107.010242 87.2777581,109.057147 L87.0290819,109.193678 C85.3593417,110.08587 83.453625,110.592 81.432,110.592 L81.432,110.592 L12.0242813,110.592 C5.4531563,110.592 0.108,105.246 0.108,98.6757187 L0.108,98.6757187 L0.108,11.9162813 C0.108,5.346 5.454,1.84741111e-13 12.0242813,1.84741111e-13 L12.0242813,1.84741111e-13 L55.404,1.84741111e-13 C56.2629374,1.84741111e-13 57.0872813,0.341718696 57.6947813,0.949218696 L57.6947813,0.949218696 L92.3990626,35.6535 C93.0065626,36.261 93.3482813,37.0845 93.3482813,37.9442813 L93.3482813,37.9442813 Z" id="Combined-Shape" stroke="#000000" stroke-width="2" fill="#FFFFFF" fill-rule="nonzero"></path>
                        <g id="music" transform="translate(38.117180, 61.386706) scale(-1, 1) translate(-38.117180, -61.386706) translate(19.617180, 43.386706)">
                            <circle id="Oval" fill="#D8D8D8" cx="6.97985298" cy="29.784079" r="4.5"></circle>
                            <circle id="Oval" fill="#D8D8D8" cx="30.3512268" cy="25.8118142" r="4.5"></circle>
                            <path d="M36.081224,0.342116967 C35.842454,0.142616967 35.527594,0.0592469674 35.221274,0.114616967 L11.981274,4.31461697 C11.481544,4.40498697 11.118034,4.84003697 11.118034,5.34788697 L11.118034,24.946487 C10.002584,23.946887 8.53020399,23.337887 6.91803399,23.337887 C3.44421399,23.337887 0.618033989,26.164067 0.618033989,29.637887 C0.618033989,33.111707 3.44421399,35.937887 6.91803399,35.937887 C10.391854,35.937887 13.218034,33.111707 13.218034,29.637887 L13.218034,13.925127 L34.358034,10.104667 L34.358034,21.796557 C33.242584,20.796887 31.770204,20.187887 30.158034,20.187887 C26.684214,20.187887 23.858034,23.014067 23.858034,26.487887 C23.858034,29.961707 26.684214,32.787887 30.158034,32.787887 C33.631854,32.787887 36.458034,29.961707 36.458034,26.487887 L36.458034,1.14788697 C36.458034,0.836736967 36.320064,0.541616967 36.081224,0.342116967 Z M6.91803399,33.837887 C4.60215399,33.837887 2.71803399,31.953767 2.71803399,29.637887 C2.71803399,27.322007 4.60215399,25.437887 6.91803399,25.437887 C9.23391399,25.437887 11.118034,27.322007 11.118034,29.637887 C11.118034,31.953767 9.23391399,33.837887 6.91803399,33.837887 Z M13.218034,11.791177 L13.218034,6.22519697 L34.358034,2.40466697 L34.358034,7.97064697 L13.218034,11.791177 Z M30.158034,30.687887 C27.842154,30.687887 25.958034,28.803767 25.958034,26.487887 C25.958034,24.172007 27.842154,22.287887 30.158034,22.287887 C32.473914,22.287887 34.358034,24.172007 34.358034,26.487887 C34.358034,28.803767 32.473914,30.687887 30.158034,30.687887 Z" id="Shape" fill="#000000" fill-rule="nonzero"></path>
                        </g>
                        <path d="M92.3990626,35.6535 L57.6947813,0.949218696 C56.7683437,0.022781304 55.3744687,-0.254812608 54.1636874,0.247218696 C52.9529063,0.748406304 52.164,1.9296563 52.164,3.24 L52.164,29.268 C52.164,35.8382813 57.5091563,41.1842813 64.0802813,41.1842813 L90.1082813,41.1842813 C91.4177813,41.1842813 92.599875,40.3945313 93.1010626,39.18375 C93.6030937,37.9729687 93.3255,36.5799374 92.3990626,35.6535 L92.3990626,35.6535 Z" id="Path" stroke="#000000" stroke-width="2" fill="#EDECEC" fill-rule="nonzero"></path>
                    </g>
                    <g id="image-file" filter="url(#filter-1)" transform="translate(90.400000, 0.000000)" stroke="#000000" stroke-width="2">
                        <path d="M129.500391,137.049609 C129.500391,146.175 122.075391,153.6 112.95,153.6 L112.95,153.6 L16.5503907,153.6 C7.4238282,153.6 2.84217094e-14,146.175 2.84217094e-14,137.049609 L2.84217094e-14,137.049609 L2.84217094e-14,16.5503907 C2.84217094e-14,7.425 7.425,2.13162821e-14 16.5503907,2.13162821e-14 L16.5503907,2.13162821e-14 L76.8,2.13162821e-14 C77.9929686,2.13162821e-14 79.1378907,0.4746093 79.9816407,1.3183593 L79.9816407,1.3183593 L128.182031,49.51875 C129.025781,50.3625 129.500391,51.50625 129.500391,52.7003907 L129.500391,52.7003907 Z" id="Combined-Shape" fill="#FFFFFF" fill-rule="nonzero"></path>
                        <rect id="Rectangle" x="14.6" y="20" width="47" height="5" rx="2.5"></rect>
                        <rect id="Rectangle" x="14.6" y="33" width="47" height="5" rx="2.5"></rect>
                        <rect id="Rectangle" x="14.6" y="46" width="47" height="5" rx="2.5"></rect>
                        <rect id="Rectangle" x="14.6" y="66" width="100" height="5" rx="2.5"></rect>
                        <rect id="Rectangle" x="14.6" y="79" width="100" height="5" rx="2.5"></rect>
                        <rect id="Rectangle" x="14.6" y="92" width="100" height="5" rx="2.5"></rect>
                        <rect id="Rectangle" x="14.6" y="106" width="100" height="5" rx="2.5"></rect>
                        <rect id="Rectangle" x="14.6" y="119" width="100" height="5" rx="2.5"></rect>
                        <path d="M128.032031,49.51875 L79.8316407,1.3183593 C78.5449218,0.0316407 76.6089843,-0.3539064 74.9273436,0.3433593 C73.2457032,1.0394532 72.15,2.6800782 72.15,4.5 L72.15,40.65 C72.15,49.7753907 79.5738282,57.2003907 88.7003907,57.2003907 L124.850391,57.2003907 C126.669141,57.2003907 128.310938,56.1035157 129.007031,54.421875 C129.704297,52.7402343 129.31875,50.8054686 128.032031,49.51875 L128.032031,49.51875 Z" id="Path" fill="#ECEBEB" fill-rule="nonzero"></path>
                    </g>
                    <circle id="Oval" stroke="#000000" stroke-width="2" fill="#FFFFFF" fill-rule="nonzero" cx="154.75" cy="150.75" r="18.75"></circle>
                    <g id="add-(1)" transform="translate(147.000000, 143.700000)" fill="#000000" fill-rule="nonzero" stroke="#000000" stroke-linejoin="round" stroke-width="1.1">
                        <path d="M9.10714286,6.16071429 C8.95921979,6.16071429 8.83928571,6.04078021 8.83928571,5.89285714 L8.83928571,0 L6.16071429,0 L6.16071429,5.89285714 C6.16071429,6.04078021 6.04078021,6.16071429 5.89285714,6.16071429 L0,6.16071429 L0,8.83928571 L5.89285714,8.83928571 C6.04078021,8.83928571 6.16071429,8.95921979 6.16071429,9.10714286 L6.16071429,15 L8.83928571,15 L8.83928571,9.10714286 C8.83928571,8.95921979 8.95921979,8.83928571 9.10714286,8.83928571 L15,8.83928571 L15,6.16071429 L9.10714286,6.16071429 Z" id="Path"></path>
                    </g>
                </g>
            </g>
            <circle id="Oval" fill="#DADADA" cx="76.97472" cy="46.47792" r="3.5"></circle>
            <circle id="Oval" fill="#DADADA" cx="110.97472" cy="22.47792" r="7.5"></circle>
            <circle id="Oval" fill="#DADADA" cx="228.97472" cy="217.47792" r="7.5"></circle>
        </g>
    </g>
</svg>
