<svg width="25px" height="23px" viewBox="0 0 25 23" version="1.1" xmlns="http://www.w3.org/2000/svg" xmlns:xlink="http://www.w3.org/1999/xlink">
    <g id="Page-1" stroke="none" stroke-width="1" fill="none" fill-rule="evenodd">
        <g id="add" transform="translate(1.000000, 1.000000)" fill="#9C1820" fill-rule="nonzero" stroke="#9C1820" stroke-width="0.5">
            <path d="M21.7076257,12.1131875 L21.7076257,3.96227661 C21.7076257,2.87391901 20.8225922,1.98883928 19.7341883,1.98883928 L10.5647142,1.98883928 L8.73581464,0.159939679 C8.64331048,0.0674355271 8.51805986,0.0154019414 8.38698148,0.0154019414 L1.97343733,0.0154019414 C0.885033478,0.0154019414 0,0.900481671 0,1.98883928 L0,15.8028081 C0,16.8911657 0.885033478,17.7762454 1.97343733,17.7762454 L13.0376277,17.7762454 C13.684093,20.0505988 15.7753344,21.7230739 18.2541681,21.7230739 C21.246585,21.7230739 23.681063,19.2885958 23.681063,16.296179 C23.681063,14.6145923 22.9121685,13.109411 21.7076257,12.1131875 Z M12.8522494,16.7895037 L1.97343733,16.7895037 C1.42951292,16.7895037 0.986741793,16.3467325 0.986741793,15.8028081 L0.986741793,1.98883928 C0.986741793,1.44491486 1.42951292,1.00214373 1.97343733,1.00214373 L8.18277856,1.00214373 L10.0116782,2.83104333 C10.1041823,2.92354748 10.2294329,2.97558107 10.3605113,2.97558107 L19.7342808,2.97558107 C20.2782053,2.97558107 20.7209764,3.41835219 20.7209764,3.96227661 L20.7209764,11.468341 C19.9798331,11.088149 19.142763,10.8692379 18.2541681,10.8692379 C15.2617513,10.8692379 12.8272733,13.3037159 12.8272733,16.2961328 C12.827227,16.4626865 12.837495,16.6267888 12.8522494,16.7895037 Z M18.2541681,20.7363321 C15.8056757,20.7363321 13.8139688,18.7445789 13.8139688,16.2961328 C13.8139688,13.8476403 15.805722,11.8559334 18.2541681,11.8559334 C20.7026143,11.8559334 22.6943675,13.8476866 22.6943675,16.2961328 C22.6943675,18.7446252 20.7026143,20.7363321 18.2541681,20.7363321 Z" id="Shape"></path>
            <path d="M20.2275592,15.8028081 L18.7474928,15.8028081 L18.7474928,14.3227417 C18.7474928,14.0500394 18.5268241,13.8293708 18.2541219,13.8293708 C17.9814197,13.8293708 17.7607973,14.0500394 17.7607973,14.3227417 L17.7607973,15.8028081 L16.2807308,15.8028081 C16.0080286,15.8028081 15.7873599,16.0234768 15.7873599,16.296179 C15.7873599,16.5688812 16.0080286,16.7895499 16.2807308,16.7895499 L17.7607973,16.7895499 L17.7607973,18.2696163 C17.7607973,18.5423186 17.9814659,18.7629872 18.2541681,18.7629872 C18.5268704,18.7629872 18.747539,18.5423186 18.747539,18.2696163 L18.747539,16.7895499 L20.2276055,16.7895499 C20.5003077,16.7895499 20.7209764,16.5688812 20.7209764,16.296179 C20.7209764,16.0234768 20.5002615,15.8028081 20.2275592,15.8028081 Z" id="Path"></path>
        </g>
    </g>
</svg>
