<svg width="25px" height="21px" viewBox="0 0 25 21" version="1.1" xmlns="http://www.w3.org/2000/svg" xmlns:xlink="http://www.w3.org/1999/xlink">
    <g id="Page-1" stroke="none" stroke-width="1" fill="none" fill-rule="evenodd" opacity="0.25">
        <g id="noun_957199_cc" transform="translate(0.000000, 1.000000)" fill="#2C1E8F" fill-rule="nonzero">
            <path d="M6.66654932,0 L22.9646802,0 C23.5544288,-1.21855809e-15 24.0325146,0.478085734 24.0325146,1.06783437 C24.0325146,1.65758301 23.5544288,2.13566875 22.9646802,2.13566875 L6.66654932,2.13566875 C6.07680068,2.13566875 5.59871494,1.65758301 5.59871494,1.06783437 C5.59871494,0.478085734 6.07680068,3.30379673e-16 6.66654932,0 Z" id="Rectangle-path" stroke="#311695" stroke-width="0.1"></path>
            <path d="M6.66654932,5.63084885 L22.9646802,5.63084885 C23.5544288,5.63084885 24.0325146,6.10893458 24.0325146,6.69868322 C24.0325146,7.28843186 23.5544288,7.7665176 22.9646802,7.7665176 L6.66654932,7.7665176 C6.07680068,7.7665176 5.59871494,7.28843186 5.59871494,6.69868322 C5.59871494,6.10893458 6.07680068,5.63084885 6.66654932,5.63084885 Z" id="Rectangle-path" stroke="#311695" stroke-width="0.1"></path>
            <path d="M6.66654932,11.2616977 L22.9646802,11.2616977 C23.5544288,11.2616977 24.0325146,11.7397834 24.0325146,12.3295321 C24.0325146,12.9192807 23.5544288,13.3973664 22.9646802,13.3973664 L6.66654932,13.3973664 C6.07680068,13.3973664 5.59871494,12.9192807 5.59871494,12.3295321 C5.59871494,11.7397834 6.07680068,11.2616977 6.66654932,11.2616977 Z" id="Rectangle-path" stroke="#311695" stroke-width="0.1"></path>
            <path d="M6.66654932,16.8925465 L22.9646802,16.8925465 C23.5544288,16.8925465 24.0325146,17.3706323 24.0325146,17.9603809 C24.0325146,18.5501296 23.5544288,19.0282153 22.9646802,19.0282153 L6.66654932,19.0282153 C6.07680068,19.0282153 5.59871494,18.5501296 5.59871494,17.9603809 C5.59871494,17.3706323 6.07680068,16.8925465 6.66654932,16.8925465 Z" id="Rectangle-path" stroke="#311695" stroke-width="0.1"></path>
            <path d="M1.74759005,0 C2.33733869,-1.08335068e-16 2.81542442,0.478085734 2.81542442,1.06783437 C2.81542442,1.65758301 2.33733869,2.13566875 1.74759005,2.13566875 C1.15784141,2.13566875 0.679755678,1.65758301 0.679755678,1.06783437 C0.679755678,0.478085734 1.15784141,1.08335068e-16 1.74759005,0 Z" id="Rectangle-path"></path>
            <path d="M1.74759005,5.63084885 C2.33733869,5.63084885 2.81542442,6.10893458 2.81542442,6.69868322 C2.81542442,7.28843186 2.33733869,7.7665176 1.74759005,7.7665176 C1.15784141,7.7665176 0.679755678,7.28843186 0.679755678,6.69868322 C0.679755678,6.10893458 1.15784141,5.63084885 1.74759005,5.63084885 Z" id="Rectangle-path"></path>
            <path d="M1.74759005,11.2616977 C2.33733869,11.2616977 2.81542442,11.7397834 2.81542442,12.3295321 C2.81542442,12.9192807 2.33733869,13.3973664 1.74759005,13.3973664 C1.15784141,13.3973664 0.679755678,12.9192807 0.679755678,12.3295321 C0.679755678,11.7397834 1.15784141,11.2616977 1.74759005,11.2616977 Z" id="Rectangle-path"></path>
            <path d="M1.74759005,16.8925465 C2.33733869,16.8925465 2.81542442,17.3706323 2.81542442,17.9603809 C2.81542442,18.5501296 2.33733869,19.0282153 1.74759005,19.0282153 C1.15784141,19.0282153 0.679755678,18.5501296 0.679755678,17.9603809 C0.679755678,17.3706323 1.15784141,16.8925465 1.74759005,16.8925465 Z" id="Rectangle-path"></path>
        </g>
    </g>
</svg>
