<svg width="23px" height="23px" viewBox="0 0 23 23" version="1.1" xmlns="http://www.w3.org/2000/svg" xmlns:xlink="http://www.w3.org/1999/xlink">
    <g id="Page-1" stroke="none" stroke-width="1" fill="none" fill-rule="evenodd">
        <g id="Media-Manager---Search-Field" transform="translate(-1282.000000, -142.000000)">
            <rect id="Rectangle" fill="#FFFFFF" x="350" y="116" width="1089" height="968"></rect>
            <g id="Group-2" transform="translate(409.000000, 134.000000)">
                <g id="Page-1" transform="translate(853.000000, 7.000000)" fill="#2C1E8F" stroke="#301695" stroke-width="0.25">
                    <path d="M14.9499307,-5.89060882e-05 L14.9499307,0.589001973 L14.9499307,7.20003222 L21.4234321,7.20003222 L21.4234321,-5.89060882e-05 L14.9499307,-5.89060882e-05 Z M16.0146513,6.0213214 L20.3587115,6.0213214 L20.3587115,1.17806285 L16.0146513,1.17806285 L16.0146513,6.0213214 Z" id="Fill-9"></path>
                    <path d="M16.0143852,15.2220016 L20.3584453,15.2220016 L20.3584453,10.378154 L16.0143852,10.378154 L16.0143852,15.2220016 Z M14.9496645,9.20003222 L14.9496645,9.7890931 L14.9496645,16.4001233 L21.4236983,16.4001233 L21.4236983,9.20003222 L14.9496645,9.20003222 Z" id="Fill-10"></path>
                    <path d="M16.0143852,24.4220927 L20.3584453,24.4220927 L20.3584453,19.5782451 L16.0143852,19.5782451 L16.0143852,24.4220927 Z M14.9496645,18.4001233 L14.9496645,18.9891842 L14.9496645,25.5996254 L21.4236983,25.5996254 L21.4236983,18.4001233 L14.9496645,18.4001233 Z" id="Fill-11"></path>
                </g>
                <rect id="Rectangle" fill="#F9F9F9" x="0" y="0" width="920" height="44" rx="22"></rect>
                <g id="icon-search" transform="translate(873.000000, 8.000000)" fill="#2C1E8F" fill-rule="nonzero">
                    <path d="M10.1463298,0 C4.55179491,0 0,4.55179491 0,10.1463298 C0,15.7411797 4.55179491,20.2926596 10.1463298,20.2926596 C15.7411797,20.2926596 20.2926596,15.7411797 20.2926596,10.1463298 C20.2926596,4.55179491 15.7411797,0 10.1463298,0 Z M10.1463298,18.4195346 C5.58454489,18.4195346 1.87316996,14.7081597 1.87316996,10.1463748 C1.87316996,5.58458989 5.58454489,1.87316996 10.1463298,1.87316996 C14.7081147,1.87316996 18.4194896,5.58454489 18.4194896,10.1463298 C18.4194896,14.7081147 14.7081147,18.4195346 10.1463298,18.4195346 Z" id="Shape"></path>
                    <path d="M22.7655895,21.4412396 L17.3958297,16.0714797 C17.0299347,15.7055847 16.4373747,15.7055847 16.0714797,16.0714797 C15.7055847,16.4370597 15.7055847,17.0302497 16.0714797,17.3958297 L21.4412396,22.7655895 C21.6241646,22.9485145 21.8636546,23.0399995 22.1034146,23.0399995 C22.3428596,23.0399995 22.5826196,22.9485145 22.7655895,22.7655895 C23.1314845,22.4000096 23.1314845,21.8068196 22.7655895,21.4412396 Z" id="Path"></path>
                </g>
            </g>
        </g>
    </g>
</svg>
