<svg width="20px" height="23px" viewBox="0 0 20 23" version="1.1" xmlns="http://www.w3.org/2000/svg" xmlns:xlink="http://www.w3.org/1999/xlink">
    <g id="Page-1" stroke="none" stroke-width="1" fill="none" fill-rule="evenodd">
        <g transform="translate(1.000000, 1.000000)" fill="#2C1E8F" stroke="#301695" stroke-width="0.15">
            <path d="M3.72102342e-16,-4.93574103e-05 L3.72102342e-16,0.493524743 L3.72102342e-16,6.03290688 L5.42503882,6.03290688 L5.42503882,-4.93574103e-05 L3.72102342e-16,-4.93574103e-05 Z M0.89212939,5.0452651 L4.53290943,5.0452651 L4.53290943,0.987098844 L0.89212939,0.987098844 L0.89212939,5.0452651 Z" id="Fill-1"></path>
            <path d="M3.72102342e-16,7.70870684 L3.72102342e-16,8.20228094 L3.72102342e-16,13.7411695 L5.42503882,13.7411695 L5.42503882,7.70870684 L3.72102342e-16,7.70870684 Z M0.89212939,12.7540213 L4.53290943,12.7540213 L4.53290943,8.69585505 L0.89212939,8.69585505 L0.89212939,12.7540213 Z" id="Fill-2"></path>
            <path d="M3.72102342e-16,15.4169695 L3.72102342e-16,15.9105436 L3.72102342e-16,21.4499257 L5.42503882,21.4499257 L5.42503882,15.4169695 L3.72102342e-16,15.4169695 Z M0.89212939,20.4622839 L4.53290943,20.4622839 L4.53290943,16.4041177 L0.89212939,16.4041177 L0.89212939,20.4622839 Z" id="Fill-3"></path>
            <path d="M6.26293881,-4.93574103e-05 L6.26293881,0.493524743 L6.26293881,6.03290688 L11.6884237,6.03290688 L11.6884237,-4.93574103e-05 L6.26293881,-4.93574103e-05 Z M7.15551426,5.0452651 L10.7962943,5.0452651 L10.7962943,0.987098844 L7.15551426,0.987098844 L7.15551426,5.0452651 Z" id="Fill-5"></path>
            <path d="M7.15529123,12.7545149 L10.7960713,12.7545149 L10.7960713,8.69585505 L7.15529123,8.69585505 L7.15529123,12.7545149 Z M6.26316184,7.70870684 L6.26316184,8.20228094 L6.26316184,13.7416631 L11.6882007,13.7416631 L11.6882007,7.70870684 L6.26316184,7.70870684 Z" id="Fill-6"></path>
            <path d="M7.15529123,20.4632711 L10.7960713,20.4632711 L10.7960713,16.4046112 L7.15529123,16.4046112 L7.15529123,20.4632711 Z M6.26316184,15.417463 L6.26316184,15.9110371 L6.26316184,21.4499257 L11.6882007,21.4499257 L11.6882007,15.417463 L6.26316184,15.417463 Z" id="Fill-7"></path>
            <path d="M12.5265467,-4.93574103e-05 L12.5265467,0.493524743 L12.5265467,6.03290688 L17.9506934,6.03290688 L17.9506934,-4.93574103e-05 L12.5265467,-4.93574103e-05 Z M13.4186761,5.0452651 L17.058564,5.0452651 L17.058564,0.987098844 L13.4186761,0.987098844 L13.4186761,5.0452651 Z" id="Fill-9"></path>
            <path d="M13.4184531,12.7545149 L17.058341,12.7545149 L17.058341,8.69585505 L13.4184531,8.69585505 L13.4184531,12.7545149 Z M12.5263237,7.70870684 L12.5263237,8.20228094 L12.5263237,13.7416631 L17.9509164,13.7416631 L17.9509164,7.70870684 L12.5263237,7.70870684 Z" id="Fill-10"></path>
            <path d="M13.4184531,20.4632711 L17.058341,20.4632711 L17.058341,16.4046112 L13.4184531,16.4046112 L13.4184531,20.4632711 Z M12.5263237,15.417463 L12.5263237,15.9110371 L12.5263237,21.4499257 L17.9509164,21.4499257 L17.9509164,15.417463 L12.5263237,15.417463 Z" id="Fill-11"></path>
        </g>
    </g>
</svg>
